<svg viewBox="0 0 800 450" xmlns="http://www.w3.org/2000/svg">
  <defs>
    <linearGradient id="bg4" x1="0%" y1="0%" x2="100%" y2="100%">
      <stop offset="0%" stop-color="#111827"/><stop offset="100%" stop-color="#000000"/>
    </linearGradient>
  </defs>
  <rect width="800" height="450" fill="url(#bg4)"/>
  <rect x="60" y="40" width="680" height="370" rx="14" fill="#16191F"/>
  
  <rect x="0" y="0" width="680" height="40" fill="#1F2430"/>
  <circle cx="18" cy="20.0" r="5" fill="#FF5F56"/><circle cx="34" cy="20.0" r="5" fill="#FFBD2E"/><circle cx="50" cy="20.0" r="5" fill="#27C93F"/>
  <rect x="80" y="9.0" width="240" height="22" rx="11" fill="#0F1115"/>
  <text x="92" y="25.0" font-family="'Segoe UI',Arial,sans-serif" font-size="12" fill="#FBBF24">ridesense.ai/dashboard</text>

  <g transform="translate(60,40)">
    <!-- KPI cards -->
    <g transform="translate(20,55)">
      <rect width="190" height="70" rx="10" fill="#1F2430"/>
      <text x="16" y="26" font-family="'Segoe UI',Arial,sans-serif" font-size="11" fill="#9CA3AF">TOTAL RIDES</text>
      <text x="16" y="52" font-family="'Segoe UI',Arial,sans-serif" font-size="22" font-weight="700" fill="#FBBF24">128.4K</text>
    </g>
    <g transform="translate(225,55)">
      <rect width="190" height="70" rx="10" fill="#1F2430"/>
      <text x="16" y="26" font-family="'Segoe UI',Arial,sans-serif" font-size="11" fill="#9CA3AF">AVG FARE</text>
      <text x="16" y="52" font-family="'Segoe UI',Arial,sans-serif" font-size="22" font-weight="700" fill="#34D399">$14.20</text>
    </g>
    <g transform="translate(430,55)">
      <rect width="190" height="70" rx="10" fill="#1F2430"/>
      <text x="16" y="26" font-family="'Segoe UI',Arial,sans-serif" font-size="11" fill="#9CA3AF">PEAK HOUR</text>
      <text x="16" y="52" font-family="'Segoe UI',Arial,sans-serif" font-size="22" font-weight="700" fill="#F472B6">6-8 PM</text>
    </g>

    <!-- bar chart -->
    <g transform="translate(20,145)">
      <rect width="380" height="175" rx="10" fill="#1F2430"/>
      <text x="16" y="24" font-family="'Segoe UI',Arial,sans-serif" font-size="12" fill="#D1D5DB">Rides by Hour</text>
      <rect x="24" y="90" width="26" height="60" rx="4" fill="#FBBF24" opacity="0.55"/><rect x="66" y="60" width="26" height="90" rx="4" fill="#FBBF24" opacity="0.67"/><rect x="108" y="110" width="26" height="40" rx="4" fill="#FBBF24" opacity="0.79"/><rect x="150" y="40" width="26" height="110" rx="4" fill="#FBBF24" opacity="0.91"/><rect x="192" y="75" width="26" height="75" rx="4" fill="#FBBF24" opacity="0.55"/><rect x="234" y="95" width="26" height="55" rx="4" fill="#FBBF24" opacity="0.67"/><rect x="276" y="55" width="26" height="95" rx="4" fill="#FBBF24" opacity="0.79"/><rect x="318" y="95" width="26" height="55" rx="4" fill="#FBBF24" opacity="0.91"/>
    </g>

    <!-- line trend -->
    <g transform="translate(420,145)">
      <rect width="200" height="175" rx="10" fill="#1F2430"/>
      <text x="16" y="24" font-family="'Segoe UI',Arial,sans-serif" font-size="12" fill="#D1D5DB">Weekly Trend</text>
      <polyline points="16,140 46,110 76,125 106,80 136,95 166,55 184,70" fill="none" stroke="#34D399" stroke-width="3" stroke-linecap="round" stroke-linejoin="round"/>
      <circle cx="184" cy="70" r="5" fill="#34D399"/>
    </g>
  </g>
</svg>