<svg viewBox="0 0 800 450" xmlns="http://www.w3.org/2000/svg">
  <defs>
    <linearGradient id="bg1" x1="0%" y1="0%" x2="100%" y2="100%">
      <stop offset="0%" stop-color="#0F766E"/><stop offset="100%" stop-color="#0B4F4A"/>
    </linearGradient>
  </defs>
  <rect width="800" height="450" fill="url(#bg1)"/>
  <circle cx="700" cy="60" r="140" fill="#14B8A6" opacity="0.12"/>
  <circle cx="50" cy="420" r="120" fill="#000" opacity="0.15"/>

  <!-- phone frame -->
  <g transform="translate(330,30)">
    <rect x="0" y="0" width="220" height="390" rx="32" fill="#0B1220"/>
    <rect x="8" y="8" width="204" height="374" rx="26" fill="#F8FAFC"/>
    <rect x="78" y="14" width="64" height="14" rx="7" fill="#0B1220"/>

    <!-- camera viewfinder -->
    <rect x="28" y="46" width="164" height="150" rx="10" fill="#0B1220"/>
    <rect x="42" y="60" width="20" height="3" fill="#14B8A6"/>
    <rect x="42" y="60" width="3" height="20" fill="#14B8A6"/>
    <rect x="168" y="60" width="20" height="3" fill="#14B8A6"/>
    <rect x="185" y="60" width="3" height="20" fill="#14B8A6"/>
    <rect x="42" y="166" width="20" height="3" fill="#14B8A6"/>
    <rect x="42" y="149" width="3" height="20" fill="#14B8A6"/>
    <rect x="168" y="166" width="20" height="3" fill="#14B8A6"/>
    <rect x="185" y="149" width="3" height="20" fill="#14B8A6"/>
    <circle cx="110" cy="121" r="34" fill="none" stroke="#14B8A6" stroke-width="2" opacity="0.7"/>
    <ellipse cx="110" cy="121" rx="22" ry="14" fill="#E2725B" opacity="0.85"/>

    <!-- result card -->
    <rect x="22" y="210" width="176" height="100" rx="12" fill="#fff"/>
    <circle cx="44" cy="232" r="11" fill="#10B981"/>
    <path d="M39 232 l4 4 l8 -8" stroke="#fff" stroke-width="2.2" fill="none" stroke-linecap="round" stroke-linejoin="round"/>
    <rect x="62" y="225" width="110" height="8" rx="4" fill="#0F172A"/>
    <rect x="62" y="239" width="80" height="6" rx="3" fill="#94A3B8"/>
    <rect x="36" y="258" width="148" height="8" rx="4" fill="#E2E8F0"/>
    <rect x="36" y="258" width="118" height="8" rx="4" fill="#14B8A6"/>
    <text x="36" y="288" font-family="'Segoe UI',Arial,sans-serif" font-size="11" fill="#64748B">Confidence: 92%</text>

    <rect x="70" y="324" width="80" height="36" rx="10" fill="#14B8A6"/>
    <text x="110" y="347" text-anchor="middle" font-family="'Segoe UI',Arial,sans-serif" font-size="12" font-weight="600" fill="#fff">Scan Now</text>
  </g>

  <g transform="translate(70,90)">
    <circle r="26" fill="#fff" opacity="0.95"/>
    <rect x="-3" y="-13" width="6" height="26" rx="3" fill="#0F766E"/>
    <rect x="-13" y="-3" width="26" height="6" rx="3" fill="#0F766E"/>
  </g>
  <text x="70" y="150" font-family="'Segoe UI',Arial,sans-serif" font-size="16" font-weight="600" fill="#A7F3D0">Oral Ulcer</text>
  <text x="70" y="170" font-family="'Segoe UI',Arial,sans-serif" font-size="16" font-weight="600" fill="#A7F3D0">Detection AI</text>
</svg>