<svg viewBox="0 0 800 450" xmlns="http://www.w3.org/2000/svg">
  <defs>
    <linearGradient id="bg5" x1="0%" y1="0%" x2="100%" y2="100%">
      <stop offset="0%" stop-color="#EEF2FF"/><stop offset="100%" stop-color="#C7D2FE"/>
    </linearGradient>
  </defs>
  <rect width="800" height="450" fill="url(#bg5)"/>
  <rect x="60" y="40" width="680" height="370" rx="14" fill="#ffffff"/>
  
  <rect x="0" y="0" width="680" height="40" fill="#F1F5F9"/>
  <circle cx="18" cy="20.0" r="5" fill="#FF5F56"/><circle cx="34" cy="20.0" r="5" fill="#FFBD2E"/><circle cx="50" cy="20.0" r="5" fill="#27C93F"/>
  <rect x="80" y="9.0" width="240" height="22" rx="11" fill="#E2E8F0"/>
  <text x="92" y="25.0" font-family="'Segoe UI',Arial,sans-serif" font-size="12" fill="#475569">summarize.ai/doc/482</text>

  <g transform="translate(60,40)">
    <!-- document left -->
    <text x="24" y="74" font-family="'Segoe UI',Arial,sans-serif" font-size="12" font-weight="700" fill="#4338CA">SOURCE DOCUMENT</text>
    <rect x="24" y="90" width="320" height="7" rx="3" fill="#CBD5E1"/><rect x="24" y="106" width="320" height="7" rx="3" fill="#CBD5E1"/><rect x="24" y="122" width="320" height="7" rx="3" fill="#CBD5E1"/><rect x="24" y="138" width="220" height="7" rx="3" fill="#CBD5E1"/><rect x="24" y="154" width="320" height="7" rx="3" fill="#CBD5E1"/><rect x="24" y="170" width="320" height="7" rx="3" fill="#CBD5E1"/><rect x="24" y="186" width="320" height="7" rx="3" fill="#CBD5E1"/><rect x="24" y="202" width="220" height="7" rx="3" fill="#CBD5E1"/><rect x="24" y="218" width="320" height="7" rx="3" fill="#CBD5E1"/><rect x="24" y="234" width="320" height="7" rx="3" fill="#CBD5E1"/><rect x="24" y="250" width="320" height="7" rx="3" fill="#CBD5E1"/><rect x="24" y="266" width="220" height="7" rx="3" fill="#CBD5E1"/><rect x="24" y="282" width="320" height="7" rx="3" fill="#CBD5E1"/>

    <!-- divider -->
    <line x1="380" y1="55" x2="380" y2="355" stroke="#E2E8F0" stroke-width="2"/>

    <!-- summary right -->
    <rect x="404" y="55" width="252" height="300" rx="12" fill="#EEF2FF"/>
    <text x="424" y="82" font-family="'Segoe UI',Arial,sans-serif" font-size="13" font-weight="700" fill="#4338CA">AI Summary</text>

    <circle cx="430" cy="106" r="4" fill="#6366F1"/>
    <rect x="442" y="101" width="190" height="7" rx="3" fill="#475569"/>
    <rect x="442" y="113" width="160" height="7" rx="3" fill="#94A3B8"/>

    <circle cx="430" cy="140" r="4" fill="#6366F1"/>
    <rect x="442" y="135" width="200" height="7" rx="3" fill="#475569"/>
    <rect x="442" y="147" width="140" height="7" rx="3" fill="#94A3B8"/>

    <circle cx="430" cy="174" r="4" fill="#6366F1"/>
    <rect x="442" y="169" width="180" height="7" rx="3" fill="#475569"/>

    <rect x="424" y="310" width="90" height="30" rx="8" fill="#4F46E5"/>
    <text x="469" y="330" text-anchor="middle" font-family="'Segoe UI',Arial,sans-serif" font-size="11" font-weight="600" fill="#fff">Copy</text>
    <rect x="524" y="310" width="100" height="30" rx="8" fill="#fff" stroke="#C7D2FE" stroke-width="1.5"/>
    <text x="574" y="330" text-anchor="middle" font-family="'Segoe UI',Arial,sans-serif" font-size="11" font-weight="600" fill="#4F46E5">Export PDF</text>
  </g>
</svg>